<svg xmlns="http://www.w3.org/2000/svg" viewBox="0 0 100 100">
  <!-- hood/shoulders -->
  <path d="M36 44c2-4 5-6 9-6h10c4 0 7 2 9 6l-2 5c-1 3-4 5-7 5H45c-3 0-6-2-7-5z" fill="var(--av-primary,#222833)" stroke="#9aa4b2" stroke-width="1.2" stroke-linejoin="round"></path>
  <!-- torso -->
  <path d="M40 50h20v22c0 3-3 6-6 6H46c-3 0-6-3-6-6z" fill="var(--av-secondary,#2f3947)" stroke="#9aa4b2" stroke-width="1.2" stroke-linejoin="round"></path>
  <!-- pocket -->
  <path d="M43 63c2 2 4 3 7 3s5-1 7-3v6H43z" fill="var(--av-secondary,#2f3947)" stroke="#9aa4b2" stroke-width="1" stroke-linejoin="round"></path>
  <!-- neon seam -->
  <path d="M44 56h12" fill="none" stroke="var(--av-accent,#19d3ff)" stroke-width="1.2" stroke-linecap="round" opacity=".85"></path>
</svg>